# This file uses centimeters as units for non-parametric coordinates.

mtllib cabinup.mtl
g default
v -0.045044 0.597391 0.276061
v 0.528897 0.004038 -0.275401
v 0.528897 0.601604 -0.279679
v -0.123037 0.562761 0.283100
v -0.075497 0.562761 0.274421
v 0.528897 0.004038 0.227206
v -0.075497 0.178357 0.274510
v 0.528897 0.601604 0.261696
v 0.528897 0.096749 0.226543
v -0.123037 0.562761 0.274421
v -0.045044 0.110490 0.264056
v 0.528897 0.096749 -0.276065
v 0.528897 0.102226 0.265271
v -0.123037 0.178357 0.274510
v -0.523293 0.110490 0.264056
v 0.528897 0.102226 -0.276104
v -0.075497 0.562761 0.283100
v -0.116331 0.370559 0.283145
v 0.528897 0.654802 0.258426
v 0.528897 0.654802 -0.280040
v -0.000285 0.601604 0.232933
v 0.528897 0.601604 0.232933
v -0.523293 0.597391 0.260570
v 0.528897 0.601604 -0.279679
v 0.528897 0.601604 0.264385
v -0.075497 0.370559 0.283145
v 0.528897 0.654802 0.232572
v -0.075497 0.274458 0.283167
v 0.528897 0.628203 0.232752
v 0.528897 0.628203 -0.279860
v -0.075497 0.178357 0.283189
v -0.116331 0.466660 0.274443
v -0.075497 0.466660 0.283122
v 0.528897 0.628203 0.265604
v 0.528897 0.641503 0.232662
v 0.528897 0.641503 -0.279950
v -0.045044 0.597391 0.260570
v -0.075497 0.370559 0.274466
v -0.116331 0.466660 0.283122
v 0.528897 0.641503 0.263065
v 0.528897 0.614903 0.232842
v 0.528897 0.614903 -0.279770
v -0.123037 0.178357 0.283189
v -0.116331 0.370559 0.274466
v -0.116331 0.274458 0.283167
v 0.528897 0.614903 0.266744
v 0.042714 0.110490 0.279547
v 0.522723 0.110490 0.279547
v 0.522723 0.597391 0.276061
v 0.042714 0.597391 0.276061
v 0.042714 0.110490 0.264056
v 0.522723 0.110490 0.264056
v 0.522723 0.597391 0.260570
v 0.042714 0.597391 0.260570
v 0.074927 0.178357 0.283189
v 0.122466 0.178357 0.283189
v 0.122466 0.562761 0.283100
v 0.074927 0.562761 0.283100
v 0.115761 0.370559 0.283145
v 0.074927 0.370559 0.283145
v 0.115761 0.466660 0.283122
v 0.074927 0.466660 0.283122
v 0.115761 0.274458 0.283167
v 0.074927 0.274458 0.283167
v 0.074927 0.178357 0.274510
v 0.122466 0.178357 0.274510
v 0.122466 0.562761 0.274421
v 0.074927 0.562761 0.274421
v 0.115761 0.370559 0.274466
v 0.074927 0.370559 0.274466
v 0.115761 0.466660 0.274443
v 0.074927 0.466660 0.274443
v 0.115761 0.274458 0.274488
v 0.074927 0.274458 0.274488
v -0.000285 0.004038 -0.275401
v -0.529467 0.004038 -0.275401
v -0.529467 0.601604 -0.279679
v -0.523293 0.597391 0.276061
v -0.000285 0.004038 0.227206
v -0.529467 0.004038 0.227206
v -0.000285 0.601604 0.261696
v -0.529467 0.601604 0.261696
v -0.529467 0.096749 0.226543
v -0.000285 0.096749 0.226543
v -0.000285 0.096749 -0.276065
v -0.529467 0.096749 -0.276065
v -0.529467 0.102226 0.265271
v -0.000285 0.102226 0.265271
v -0.000285 0.102226 -0.276104
v -0.529467 0.102226 -0.276104
v -0.000285 0.654802 -0.280040
v -0.000285 0.654802 0.232572
v -0.529467 0.654802 0.258426
v -0.529467 0.654802 -0.280040
v -0.000285 0.601604 0.232933
v -0.529467 0.601604 0.232933
v -0.000285 0.601604 -0.279679
v -0.529467 0.601604 -0.279679
v -0.529467 0.601604 0.264385
v -0.000285 0.654802 0.258426
v -0.529467 0.654802 0.232572
v -0.000285 0.601604 0.264385
v -0.529467 0.628203 0.232752
v -0.529467 0.628203 -0.279860
v -0.000285 0.628203 -0.279860
v -0.075497 0.274458 0.274488
v -0.000285 0.628203 0.265604
v -0.529467 0.628203 0.265604
v -0.529467 0.641503 0.232662
v -0.529467 0.641503 -0.279950
v -0.000285 0.641503 -0.279950
v -0.116331 0.274458 0.274488
v -0.000285 0.641503 0.263065
v -0.529467 0.641503 0.263065
v -0.529467 0.614903 0.232842
v -0.529467 0.614903 -0.279770
v -0.000285 0.614903 -0.279770
v -0.075497 0.466660 0.274443
v -0.000285 0.614903 0.266744
v -0.529467 0.614903 0.266744
v -0.045044 0.110490 0.279547
v -0.523293 0.110490 0.279547
vt 0.647098 0.351545
vt 0.647098 0.395036
vt 0.437536 0.395036
vt 0.437536 0.351545
vt 0.209562 0.373302
vt 0.419124 0.373302
vt 0.419124 0.609070
vt 0.209562 0.609070
vt 0.717042 0.873257
vt 0.525770 0.873256
vt 0.525770 0.651982
vt 0.717042 0.652628
vt 0.236649 0.875070
vt 0.199933 0.875070
vt 0.201358 0.639308
vt 0.238074 0.639308
vt 0.647098 0.105233
vt 0.856660 0.105233
vt 0.856660 0.339492
vt 0.647098 0.339492
vt 0.647098 0.043394
vt 0.856660 0.043394
vt 0.856660 0.086885
vt 0.647098 0.086885
vt 0.199299 0.621123
vt 0.197764 0.875070
vt 0.000062 0.875070
vt 0.000062 0.621123
vt 0.893633 0.893988
vt 0.934888 0.899009
vt 0.930682 0.902872
vt 0.893464 0.898341
vt 0.437536 0.397605
vt 0.647098 0.397605
vt 0.647098 0.631864
vt 0.437536 0.631864
vt 0.000062 0.899600
vt 0.000062 0.893362
vt 0.203107 0.893362
vt 0.203072 0.899600
vt 0.209562 0.336294
vt 0.209562 0.095832
vt 0.419124 0.095832
vt 0.419124 0.336294
vt 0.419124 0.083704
vt 0.209562 0.083704
vt 0.209562 0.077097
vt 0.419124 0.077097
vt 0.853361 0.898828
vt 0.893015 0.921670
vt 0.853044 0.919735
vt 0.419124 0.342532
vt 0.209562 0.342532
vt 0.737707 0.910735
vt 0.737707 0.670274
vt 0.742974 0.670232
vt 0.742974 0.910693
vt 0.758774 0.670105
vt 0.753507 0.670147
vt 0.753507 0.654244
vt 0.758774 0.655351
vt 0.812803 0.918949
vt 0.812899 0.898272
vt 0.209562 0.043394
vt 0.419124 0.043394
vt 0.419124 0.058148
vt 0.209562 0.058148
vt 0.419124 0.064484
vt 0.209562 0.064484
vt 0.781183 0.900065
vt 0.781839 0.914524
vt 0.419124 0.361249
vt 0.209562 0.361249
vt 0.209562 0.355010
vt 0.419124 0.355010
vt 0.758774 0.910566
vt 0.753507 0.910608
vt 0.737707 0.658146
vt 0.742974 0.655970
vt 0.929831 0.920506
vt 0.209562 0.070746
vt 0.419124 0.070746
vt 0.519185 0.881359
vt 0.519185 0.643917
vt 0.419124 0.348771
vt 0.209562 0.348771
vt 0.748240 0.670190
vt 0.748240 0.910651
vt 0.724353 0.881359
vt 0.748240 0.654779
vt 0.724353 0.643917
vt 0.986172 0.651804
vt 0.986172 0.873373
vt 0.795286 0.874649
vt 0.795286 0.651805
vt 0.993512 0.643303
vt 0.993512 0.881935
vt 0.788602 0.881935
vt 0.788602 0.643303
vt 0.512671 0.914674
vt 0.512343 0.897192
vt 0.550410 0.896286
vt 0.550106 0.919571
vt 0.662128 0.903644
vt 0.661256 0.918062
vt 0.630681 0.919772
vt 0.630904 0.898962
vt 0.590281 0.919072
vt 0.590514 0.898145
vt 0.000062 0.355010
vt 0.000062 0.348771
vt 0.853359 0.894503
vt 0.000062 0.070746
vt 0.000062 0.064484
vt 0.216533 0.893362
vt 0.216081 0.899600
vt 0.509410 0.893772
vt 0.508763 0.918543
vt 0.550412 0.891956
vt 0.590620 0.893825
vt 0.631172 0.894704
vt 0.665472 0.900831
vt 0.663734 0.920933
vt 0.630766 0.923929
vt 0.590283 0.923400
vt 0.549923 0.923929
vt 0.856660 0.351545
vt 0.856660 0.395036
vt 0.000062 0.609070
vt 0.000062 0.373302
vt 0.932896 0.924356
vt 0.255807 0.897865
vt 0.254382 0.662103
vt 0.291097 0.662103
vt 0.292522 0.897865
vt 0.437536 0.339492
vt 0.437536 0.105233
vt 0.437536 0.086885
vt 0.437536 0.043394
vt 0.293156 0.643917
vt 0.490921 0.643917
vt 0.492455 0.897865
vt 0.294691 0.897865
vt 0.892998 0.925936
vt 0.856660 0.397605
vt 0.856660 0.631864
vt 0.215076 0.905839
vt 0.203036 0.905839
vt 0.000062 0.336294
vt 0.000062 0.095832
vt 0.000062 0.083704
vt 0.000062 0.077097
vt 0.852935 0.924041
vt 0.000062 0.342532
vt 0.000062 0.912078
vt 0.000062 0.905839
vt 0.203000 0.912078
vt 0.203143 0.887123
vt 0.215598 0.887123
vt 0.812545 0.923149
vt 0.209562 0.043394
vt 0.000062 0.058148
vt 0.000062 0.043394
vt 0.778809 0.917458
vt 0.000062 0.361249
vt 0.000062 0.887123
vt 0.213239 0.912078
vt 0.778408 0.897232
vt 0.812799 0.893988
vn 0.000000 -0.007159 -0.999974
vn 0.000000 -0.007159 -0.999974
vn 0.000000 -0.007159 -0.999974
vn 0.000000 -0.007159 -0.999974
vn 0.000000 -1.000000 0.000000
vn 0.000000 -1.000000 0.000000
vn 0.000000 -1.000000 0.000000
vn 0.000000 -1.000000 0.000000
vn 0.000000 0.007159 0.999974
vn 0.000000 0.007159 0.999974
vn 0.000000 0.007159 0.999974
vn 0.000000 0.007159 0.999974
vn 1.000000 0.000000 0.000000
vn 1.000000 0.000000 0.000000
vn 1.000000 0.000000 0.000000
vn 1.000000 0.000000 0.000000
vn 0.000000 0.007159 0.999974
vn 0.000000 0.007159 0.999974
vn 0.000000 0.007159 0.999974
vn 0.000000 0.007159 0.999974
vn 0.000000 0.007159 0.999974
vn 0.000000 0.007159 0.999974
vn 0.000000 0.007159 0.999974
vn 0.000000 0.007159 0.999974
vn 1.000000 0.000000 0.000000
vn 1.000000 0.000000 0.000000
vn 1.000000 0.000000 0.000000
vn 1.000000 0.000000 0.000000
vn -0.999393 0.034823 0.000000
vn -0.997575 0.069603 0.000000
vn -0.997575 0.069603 0.000000
vn -0.999393 0.034823 0.000000
vn 0.000000 -0.007159 -0.999974
vn 0.000000 -0.007159 -0.999974
vn 0.000000 -0.007159 -0.999974
vn 0.000000 -0.007159 -0.999974
vn 0.000000 -0.990149 0.140020
vn 0.000000 -0.990149 0.140020
vn 0.000000 -0.990149 0.140020
vn 0.000000 -0.990149 0.140020
vn 0.000000 -0.007159 -0.999974
vn 0.000000 -0.007159 -0.999974
vn 0.000000 -0.007159 -0.999974
vn 0.000000 -0.007159 -0.999974
vn -1.000000 0.000000 0.000000
vn -1.000000 0.000000 0.000000
vn -1.000000 0.000000 0.000000
vn -1.000000 0.000000 0.000000
vn 1.000000 0.000000 0.000000
vn 1.000000 0.000000 0.000000
vn 1.000000 0.000000 0.000000
vn 1.000000 0.000000 0.000000
vn 0.000000 1.000000 0.000000
vn 0.000000 1.000000 0.000000
vn 0.000000 1.000000 0.000000
vn 0.000000 1.000000 0.000000
vn 0.000000 0.329319 0.944219
vn 0.000000 0.329319 0.944219
vn 0.000000 0.259130 0.965843
vn 0.000000 0.259130 0.965843
vn 0.000000 0.000230 1.000000
vn 0.000000 0.000230 1.000000
vn 0.000000 0.000230 1.000000
vn 0.000000 0.000230 1.000000
vn 0.000000 -0.006779 -0.999977
vn 0.000000 -0.006779 -0.999977
vn 0.000000 -0.006779 -0.999977
vn 0.000000 -0.006779 -0.999977
vn 1.000000 0.000000 0.000000
vn 1.000000 0.000000 0.000000
vn 1.000000 0.000000 0.000000
vn 1.000000 0.000000 0.000000
vn 1.000000 0.000000 0.000000
vn 1.000000 0.000000 0.000000
vn 1.000000 0.000000 0.000000
vn 1.000000 0.000000 0.000000
vn 0.000000 1.000000 0.000000
vn 0.000000 1.000000 0.000000
vn 0.000000 1.000000 0.000000
vn 0.000000 1.000000 0.000000
vn 0.000000 0.000230 1.000000
vn 0.000000 0.000230 1.000000
vn 0.000000 0.000230 1.000000
vn 0.000000 0.000230 1.000000
vn 0.000000 -1.000000 0.000000
vn 0.000000 -1.000000 0.000000
vn 0.000000 -1.000000 0.000000
vn 0.000000 -1.000000 0.000000
vn 0.000000 -0.174646 0.984631
vn 0.000000 -0.174646 0.984631
vn 0.000000 -0.045012 0.998986
vn 0.000000 -0.045012 0.998986
vn 0.000000 0.000230 1.000000
vn 0.000000 0.000230 1.000000
vn 0.000000 0.000230 1.000000
vn 0.000000 0.000230 1.000000
vn 0.000000 -0.006779 -0.999977
vn 0.000000 -0.006779 -0.999977
vn 0.000000 -0.006779 -0.999977
vn 0.000000 -0.006779 -0.999977
vn 1.000000 0.000000 0.000000
vn 1.000000 0.000000 0.000000
vn 1.000000 0.000000 0.000000
vn 1.000000 0.000000 0.000000
vn 1.000000 0.000000 0.000000
vn 1.000000 0.000000 0.000000
vn 1.000000 0.000000 0.000000
vn 1.000000 0.000000 0.000000
vn 0.000000 0.000230 1.000000
vn 0.000000 0.000230 1.000000
vn 0.000000 0.000230 1.000000
vn 0.000000 0.000230 1.000000
vn 0.000000 0.136647 0.990620
vn 0.000000 0.136647 0.990620
vn 0.000000 0.259130 0.965843
vn 0.000000 0.259130 0.965843
vn 0.000000 1.000000 0.000000
vn 0.000000 1.000000 0.000000
vn 0.000000 1.000000 0.000000
vn 0.000000 1.000000 0.000000
vn 0.000000 -0.006779 -0.999977
vn 0.000000 -0.006779 -0.999977
vn 0.000000 -0.006779 -0.999977
vn 0.000000 -0.006779 -0.999977
vn 1.000000 0.000000 0.000000
vn 1.000000 0.000000 0.000000
vn 1.000000 0.000000 0.000000
vn 1.000000 0.000000 0.000000
vn 1.000000 0.000000 0.000000
vn 1.000000 0.000000 0.000000
vn 1.000000 0.000000 0.000000
vn 1.000000 0.000000 0.000000
vn 1.000000 0.000000 0.000000
vn 1.000000 0.000000 0.000000
vn 1.000000 0.000000 0.000000
vn 1.000000 0.000000 0.000000
vn 1.000000 0.000000 0.000000
vn 1.000000 0.000000 0.000000
vn 1.000000 0.000000 0.000000
vn 1.000000 0.000000 0.000000
vn 0.000000 0.136647 0.990620
vn 0.000000 0.136647 0.990620
vn 0.000000 -0.045012 0.998986
vn 0.000000 -0.045012 0.998986
vn -1.000000 0.000000 0.000000
vn -1.000000 0.000000 0.000000
vn -1.000000 0.000000 0.000000
vn -1.000000 0.000000 0.000000
vn 0.000000 -0.006779 -0.999977
vn 0.000000 -0.006779 -0.999977
vn 0.000000 -0.006779 -0.999977
vn 0.000000 -0.006779 -0.999977
vn 1.000000 0.000000 0.000000
vn 1.000000 0.000000 0.000000
vn 1.000000 0.000000 0.000000
vn 1.000000 0.000000 0.000000
vn 0.000000 -1.000000 0.000000
vn 0.000000 -1.000000 0.000000
vn 0.000000 -1.000000 0.000000
vn 0.000000 -1.000000 0.000000
vn 0.000000 0.007159 0.999974
vn 0.000000 0.007159 0.999974
vn 0.000000 0.007159 0.999974
vn 0.000000 0.007159 0.999974
vn 0.000000 -1.000000 0.000000
vn 0.000000 -1.000000 0.000000
vn 0.000000 -1.000000 0.000000
vn 0.000000 -1.000000 0.000000
vn 1.000000 0.000000 0.000000
vn 1.000000 0.000000 0.000000
vn 1.000000 0.000000 0.000000
vn 1.000000 0.000000 0.000000
vn -1.000000 0.000000 0.000000
vn -1.000000 0.000000 0.000000
vn -1.000000 0.000000 0.000000
vn -1.000000 0.000000 0.000000
vn 0.000000 1.000000 0.000000
vn 0.000000 1.000000 0.000000
vn 0.000000 1.000000 0.000000
vn 0.000000 1.000000 0.000000
vn 0.000000 0.000230 1.000000
vn 0.000000 0.000230 1.000000
vn 0.000000 0.000230 1.000000
vn 0.000000 0.000230 1.000000
vn 0.000000 0.000230 1.000000
vn 0.000000 0.000230 1.000000
vn 0.000000 0.000230 1.000000
vn 0.000000 0.000230 1.000000
vn 0.000000 0.000230 1.000000
vn 0.000000 0.000230 1.000000
vn 0.000000 0.000230 1.000000
vn 0.000000 0.000230 1.000000
vn 0.000000 0.000230 1.000000
vn 0.000000 0.000230 1.000000
vn 0.000000 0.000230 1.000000
vn 0.000000 0.000230 1.000000
vn 0.000000 -0.006779 -0.999977
vn 0.000000 -0.006779 -0.999977
vn 0.000000 -0.006779 -0.999977
vn 0.000000 -0.006779 -0.999977
vn -1.000000 0.000000 0.000000
vn -0.999393 0.034823 0.000000
vn -0.999393 0.034823 0.000000
vn -1.000000 0.000000 0.000000
vn 0.000000 0.136647 0.990620
vn 0.000000 -0.045012 0.998986
vn 0.000000 -0.045012 0.998986
vn 0.000000 0.136647 0.990620
vn -1.000000 0.000000 0.000000
vn -1.000000 0.000000 0.000000
vn -1.000000 0.000000 0.000000
vn -1.000000 0.000000 0.000000
vn 0.000000 -1.000000 0.000000
vn 0.000000 -1.000000 0.000000
vn 0.000000 -1.000000 0.000000
vn 0.000000 -1.000000 0.000000
vn 0.999393 0.034823 0.000000
vn 0.999393 0.034823 0.000000
vn 0.997575 0.069603 0.000000
vn 0.997575 0.069603 0.000000
vn 1.000000 0.000000 0.000000
vn 1.000000 0.000000 0.000000
vn 0.999393 0.034823 0.000000
vn 0.999393 0.034823 0.000000
vn 0.999393 -0.034823 0.000000
vn 0.999393 -0.034823 0.000000
vn 1.000000 0.000000 0.000000
vn 1.000000 0.000000 0.000000
vn 0.997575 -0.069603 0.000000
vn 0.997575 -0.069603 0.000000
vn 0.999393 -0.034823 0.000000
vn 0.999393 -0.034823 0.000000
vn 0.000000 1.000000 0.000000
vn 0.000000 1.000000 0.000000
vn 0.000000 1.000000 0.000000
vn 0.000000 1.000000 0.000000
vn -1.000000 0.000000 0.000000
vn -1.000000 0.000000 0.000000
vn -1.000000 0.000000 0.000000
vn -1.000000 0.000000 0.000000
vn -1.000000 0.000000 0.000000
vn -1.000000 0.000000 0.000000
vn -1.000000 0.000000 0.000000
vn -1.000000 0.000000 0.000000
vn -1.000000 0.000000 0.000000
vn -1.000000 0.000000 0.000000
vn -1.000000 0.000000 0.000000
vn -1.000000 0.000000 0.000000
vn -1.000000 0.000000 -0.000000
vn -1.000000 0.000000 -0.000000
vn -1.000000 0.000000 0.000000
vn -1.000000 0.000000 0.000000
vn 0.000000 -0.007159 -0.999974
vn 0.000000 -0.007159 -0.999974
vn 0.000000 -0.007159 -0.999974
vn 0.000000 -0.007159 -0.999974
vn 0.000000 -1.000000 0.000000
vn 0.000000 -1.000000 0.000000
vn 0.000000 -1.000000 0.000000
vn 0.000000 -1.000000 0.000000
vn 0.000000 -1.000000 0.000000
vn 0.000000 -1.000000 0.000000
vn 0.000000 -1.000000 0.000000
vn 0.000000 -1.000000 0.000000
vn -1.000000 0.000000 -0.000000
vn -1.000000 0.000000 -0.000000
vn -1.000000 0.000000 -0.000000
vn -1.000000 0.000000 -0.000000
vn 0.000000 0.007159 0.999974
vn 0.000000 0.007159 0.999974
vn 0.000000 0.007159 0.999974
vn 0.000000 0.007159 0.999974
vn 0.000000 0.007159 0.999974
vn 0.000000 0.007159 0.999974
vn 0.000000 0.007159 0.999974
vn 0.000000 0.007159 0.999974
vn -1.000000 0.000000 -0.000000
vn -1.000000 0.000000 -0.000000
vn -1.000000 0.000000 -0.000000
vn -1.000000 0.000000 -0.000000
vn 1.000000 0.000000 0.000000
vn 1.000000 0.000000 0.000000
vn 1.000000 0.000000 0.000000
vn 1.000000 0.000000 0.000000
vn 0.000000 -0.007159 -0.999974
vn 0.000000 -0.007159 -0.999974
vn 0.000000 -0.007159 -0.999974
vn 0.000000 -0.007159 -0.999974
vn 0.000000 -0.990149 0.140020
vn 0.000000 -0.990149 0.140020
vn 0.000000 -0.990149 0.140020
vn 0.000000 -0.990149 0.140020
vn 0.000000 -0.007159 -0.999974
vn 0.000000 -0.007159 -0.999974
vn 0.000000 -0.007159 -0.999974
vn 0.000000 -0.007159 -0.999974
vn -1.000000 0.000000 0.000000
vn -1.000000 0.000000 0.000000
vn -1.000000 0.000000 0.000000
vn -1.000000 0.000000 0.000000
vn -1.000000 0.000000 -0.000000
vn -1.000000 0.000000 -0.000000
vn -1.000000 0.000000 -0.000000
vn -1.000000 0.000000 -0.000000
vn 0.000000 1.000000 0.000000
vn 0.000000 1.000000 0.000000
vn 0.000000 1.000000 0.000000
vn 0.000000 1.000000 0.000000
vn 0.000000 0.329319 0.944219
vn 0.000000 0.259130 0.965843
vn 0.000000 0.259130 0.965843
vn 0.000000 0.329319 0.944219
vn 1.000000 0.000000 0.000000
vn 1.000000 0.000000 0.000000
vn 1.000000 0.000000 0.000000
vn 1.000000 0.000000 0.000000
vn 0.000000 -0.006779 -0.999977
vn 0.000000 -0.006779 -0.999977
vn 0.000000 -0.006779 -0.999977
vn 0.000000 -0.006779 -0.999977
vn -1.000000 0.000000 -0.000000
vn -1.000000 0.000000 0.000000
vn -1.000000 0.000000 0.000000
vn -1.000000 0.000000 0.000000
vn -1.000000 0.000000 0.000000
vn -1.000000 0.000000 0.000000
vn -1.000000 0.000000 0.000000
vn -1.000000 0.000000 0.000000
vn 0.000000 1.000000 0.000000
vn 0.000000 1.000000 0.000000
vn 0.000000 1.000000 0.000000
vn 0.000000 1.000000 0.000000
vn 1.000000 0.000000 0.000000
vn 1.000000 -0.000000 0.000000
vn 1.000000 -0.000000 0.000000
vn 1.000000 0.000000 0.000000
vn 0.000000 -1.000000 0.000000
vn 0.000000 -1.000000 0.000000
vn 0.000000 -1.000000 0.000000
vn 0.000000 -1.000000 0.000000
vn 0.000000 -0.174646 0.984631
vn 0.000000 -0.045012 0.998986
vn 0.000000 -0.045012 0.998986
vn 0.000000 -0.174646 0.984631
vn 1.000000 -0.000000 0.000000
vn 1.000000 -0.000000 0.000000
vn 1.000000 -0.000000 0.000000
vn 1.000000 -0.000000 0.000000
vn 0.000000 -0.006779 -0.999977
vn 0.000000 -0.006779 -0.999977
vn 0.000000 -0.006779 -0.999977
vn 0.000000 -0.006779 -0.999977
vn -1.000000 0.000000 0.000000
vn -1.000000 0.000000 0.000000
vn -1.000000 0.000000 0.000000
vn -1.000000 0.000000 0.000000
vn -1.000000 0.000000 0.000000
vn -1.000000 0.000000 0.000000
vn -1.000000 0.000000 0.000000
vn -1.000000 0.000000 -0.000000
vn 0.000000 1.000000 0.000000
vn 0.000000 1.000000 0.000000
vn 0.000000 1.000000 0.000000
vn 0.000000 1.000000 0.000000
vn 0.000000 0.136647 0.990620
vn 0.000000 0.259130 0.965843
vn 0.000000 0.259130 0.965843
vn 0.000000 0.136647 0.990620
vn -0.997575 -0.069603 0.000000
vn -0.999393 -0.034823 0.000000
vn -0.999393 -0.034823 0.000000
vn -0.997575 -0.069603 0.000000
vn 0.000000 -0.006779 -0.999977
vn 0.000000 -0.006779 -0.999977
vn 0.000000 -0.006779 -0.999977
vn 0.000000 -0.006779 -0.999977
vn -1.000000 0.000000 0.000000
vn -1.000000 0.000000 0.000000
vn -1.000000 0.000000 0.000000
vn -1.000000 0.000000 0.000000
vn -0.999393 -0.034823 0.000000
vn -1.000000 0.000000 0.000000
vn -1.000000 0.000000 0.000000
vn -0.999393 -0.034823 0.000000
s off
g caninet_5
usemtl lambert33SG
f 75/1/1 85/2/2 12/3/3 2/4/4
usemtl initialShadingGroup
f 75/5/5 2/6/6 6/7/7 79/8/8
f 121/9/9 1/10/10 78/11/11 122/12/12
usemtl lambert33SG
f 2/13/13 12/14/14 9/15/15 6/16/16
usemtl initialShadingGroup
f 88/17/17 13/18/18 8/19/19 81/20/20
usemtl lambert33SG
f 79/21/21 6/22/22 9/23/23 84/24/24
usemtl initialShadingGroup
f 13/25/25 16/26/26 3/27/27 8/28/28
f 112/29/29 14/30/30 43/31/31 45/32/32
f 16/33/33 89/34/34 97/35/35 3/36/36
f 84/24/37 9/23/38 13/18/39 88/17/40
f 12/3/41 85/2/42 89/34/43 16/33/44
usemtl lambert33SG
f 104/37/45 116/38/46 115/39/47 103/40/48
usemtl initialShadingGroup
f 9/15/49 12/14/50 16/26/51 13/25/52
f 91/41/53 92/42/54 27/43/55 20/44/56
usemtl lambert33SG
f 19/45/57 100/46/58 113/47/59 40/48/60
f 18/49/61 45/32/62 28/50/63 26/51/64
f 91/41/65 20/44/66 36/52/67 111/53/68
f 20/54/69 27/55/70 35/56/71 36/57/72
usemtl initialShadingGroup
f 22/58/73 41/59/74 46/60/75 25/61/76
f 27/43/77 92/42/78 100/46/79 19/45/80
usemtl lambert33SG
f 26/51/81 33/62/82 39/63/83 18/49/84
usemtl initialShadingGroup
f 21/64/85 22/65/86 25/66/87 102/67/88
f 102/67/89 25/66/90 46/68/91 119/69/92
usemtl lambert33SG
f 4/70/93 39/63/94 33/62/95 17/71/96
usemtl initialShadingGroup
f 24/72/97 97/73/98 117/74/99 42/75/100
f 22/58/101 24/76/102 42/77/103 41/59/104
f 27/55/105 19/78/106 40/79/107 35/56/108
usemtl lambert33SG
f 31/80/109 28/50/110 45/32/111 43/31/112
usemtl initialShadingGroup
f 107/81/113 34/82/114 40/48/115 113/47/116
f 1/10/117 37/83/118 23/84/119 78/11/120
f 30/85/121 105/86/122 111/53/123 36/52/124
f 29/87/125 30/88/126 36/57/127 35/56/128
f 121/9/129 11/89/130 37/83/131 1/10/132
f 34/90/133 29/87/134 35/56/135 40/79/136
f 29/87/137 34/90/138 46/60/139 41/59/140
usemtl lambert33SG
f 34/82/141 107/81/142 119/69/143 46/68/144
usemtl initialShadingGroup
f 78/11/145 23/84/146 15/91/147 122/12/148
usemtl lambert33SG
f 105/86/149 30/85/150 42/75/151 117/74/152
f 30/88/153 29/87/154 41/59/155 42/77/156
usemtl initialShadingGroup
f 122/12/157 15/91/158 11/89/159 121/9/160
f 47/92/161 48/93/162 49/94/163 50/95/164
f 48/93/165 47/92/166 51/96/167 52/97/168
f 49/94/169 48/93/170 52/97/171 53/98/172
f 47/92/173 50/95/174 54/99/175 51/96/176
f 50/95/177 49/94/178 53/98/179 54/99/180
usemtl lambert33SG
f 55/100/181 56/101/182 63/102/183 64/103/184
f 57/104/185 58/105/186 62/106/187 61/107/188
f 60/108/189 59/109/190 61/107/191 62/106/192
f 59/109/193 60/108/194 64/103/195 63/102/196
f 105/86/197 117/74/198 116/110/199 104/111/200
usemtl initialShadingGroup
f 44/112/201 112/29/202 45/32/203 18/49/204
usemtl lambert33SG
f 108/113/205 120/114/206 119/69/207 107/81/208
usemtl initialShadingGroup
f 103/40/209 115/39/210 120/115/211 108/116/212
f 66/117/213 56/101/214 55/100/215 65/118/216
f 73/119/217 63/102/218 56/101/219 66/117/220
f 69/120/221 59/109/222 63/102/223 73/119/224
f 71/121/225 61/107/226 59/109/227 69/120/228
f 67/122/229 57/104/230 61/107/231 71/121/232
f 68/123/233 58/105/234 57/104/235 67/122/236
f 72/124/237 62/106/238 58/105/239 68/123/240
f 70/125/241 60/108/242 62/106/243 72/124/244
f 74/126/245 64/103/246 60/108/247 70/125/248
f 65/118/249 55/100/250 64/103/251 74/126/252
usemtl lambert33SG
f 75/1/253 76/127/254 86/128/255 85/2/256
usemtl initialShadingGroup
f 75/5/257 79/8/258 80/129/259 76/130/260
f 14/30/261 7/131/262 31/80/263 43/31/264
usemtl lambert33SG
f 76/132/265 80/133/266 83/134/267 86/135/268
usemtl initialShadingGroup
f 88/17/269 81/20/270 82/136/271 87/137/272
usemtl lambert33SG
f 79/21/273 84/24/274 83/138/275 80/139/276
usemtl initialShadingGroup
f 87/140/277 82/141/278 77/142/279 90/143/280
f 7/131/281 106/144/282 28/50/283 31/80/284
f 90/145/285 77/146/286 97/35/287 89/34/288
f 84/24/289 88/17/290 87/137/291 83/138/292
f 86/128/293 90/145/294 89/34/295 85/2/296
f 108/116/297 114/147/298 109/148/299 103/40/300
f 83/134/301 87/140/302 90/143/303 86/135/304
f 91/41/305 94/149/306 101/150/307 92/42/308
usemtl lambert33SG
f 93/151/309 114/152/310 113/47/311 100/46/312
usemtl initialShadingGroup
f 106/144/313 38/153/314 26/51/315 28/50/316
usemtl lambert33SG
f 91/41/317 111/53/318 110/154/319 94/149/320
f 94/155/321 110/156/322 109/148/323 101/157/324
usemtl initialShadingGroup
f 96/158/325 99/159/326 120/115/327 115/39/328
f 101/150/329 93/151/330 100/46/331 92/42/332
f 38/153/333 118/160/334 33/62/335 26/51/336
f 95/161/337 102/67/338 99/162/339 96/163/340
f 102/67/341 119/69/342 120/114/343 99/162/344
f 118/160/345 5/164/346 17/71/347 33/62/348
f 98/165/349 116/110/350 117/74/351 97/73/352
f 96/158/353 115/39/354 116/38/355 98/166/356
f 101/157/357 109/148/358 114/147/359 93/167/360
f 5/164/361 10/168/362 4/70/363 17/71/364
f 107/81/365 113/47/366 114/152/367 108/113/368
f 10/168/369 32/169/370 39/63/371 4/70/372
f 104/111/373 110/154/374 111/53/375 105/86/376
f 103/40/377 109/148/378 110/156/379 104/37/380
f 32/169/381 44/112/382 18/49/383 39/63/384
